<?xml version="1.0" standalone="yes"?>
<svg xmlns="http://www.w3.org/2000/svg" width="99" height="85">
<path style="fill:#ffffff; stroke:none;" d="M0 0L0 61C2.37004 55.768 3.30547 50.611 7.3287 46.0903C11.1906 41.7508 18.8937 39.9193 21.9722 35.4907C24.6268 31.6721 22.0068 24.0867 21 20C19.054 22.0716 17.5406 23.7106 15 25C15.2912 23.1128 15.485 21.6259 16.6034 19.9954C18.8979 16.6501 23.002 14.4021 25.1211 19.0633C27.4017 24.0797 25.3754 31.4795 30 35C30.1738 26.581 30.8171 13.3627 42 14L41 18C45.0445 17.238 50.1311 17.1667 53.7145 15.0154C56.3942 13.4067 59.1201 8.98542 62.7716 10.4074C71.1628 13.6752 61.9637 27.6518 59.9861 31.9954C58.7893 34.6241 59.2456 38.0207 62.9807 36.6775C65.9939 35.5938 67.8359 32.9544 71 32C68.8272 39.7359 60.2747 45.2375 54.7276 36.9807C51.3157 31.9021 51.9486 25.6634 53 20L49 21C51.0584 28.7996 49.8886 41.8111 39.0039 42.6636C35.2748 42.9556 31.7927 40.2629 28 40C28 56.8781 27.9427 70.1447 19 85L99 85L99 27L89 31C91.3957 39.4422 95.142 48.6294 90.5826 57C86.1514 65.1351 73.0051 70.8535 68.7569 58.9992C64.5231 47.1849 79.82 39.3265 82.5941 30C83.3705 27.39 81.8132 24.434 81 22C79.2655 24.7428 78.4954 29.464 75.6073 31.2485C69.2074 35.2025 67.2133 22.6666 68 19L70 19L73 28C75.1549 24.9761 75.035 19.9725 77.7269 17.466C82.2442 13.2598 86.1629 24.1009 87 27C91.2785 25.5771 94.4463 24.127 99 25L99 0L22 0C22.6577 2.13385 22.9522 3.77242 23 6C20.1141 4.38387 19.7004 3.28683 20 0L0 0z"/>
<path style="fill:#000000; stroke:none;" d="M20 0C19.2163 3.42998 19.5778 4.86434 23 6C23.2996 2.71318 22.8859 1.61613 20 0M41 18L42 14C30.4383 11.7729 30.0667 26.9453 30 35C25.5898 29.9287 28.3324 22.6653 24.686 17.3225C20.4108 11.0586 15.2799 21.287 15 25C18.0503 24.0516 18.9123 22.9971 20 20C21.8836 23.8918 24.7203 31.6862 21.3958 35.4907C17.809 39.5956 11.2573 40.9218 7.3287 45.1736C2.08871 50.8447 -0.503874 59.3341 0.174383 67C0.638708 72.248 2.32453 78.0178 6.21296 81.7716C11.2057 86.5915 19.0309 85.9205 22.6366 79.9807C29.8052 68.1713 28 53.1634 28 40C32.1198 40.5602 35.7161 43.4087 40.0008 42.7562C50.3124 41.1858 51.8589 28.8467 49 21L53 20C51.5894 25.9248 51.1043 33.907 55.4298 38.8519C61.4216 45.7015 69.9034 39.1023 71 32C67.8752 32.5212 64.1784 36.7532 61.2886 36.2307C58.3005 35.6904 61.02 31.3059 61.686 30C63.7496 25.9531 70.3045 12.3454 62.7716 9.85108C58.6272 8.47877 55.8741 13.2328 52.8302 15.0154C49.4182 17.0136 44.7928 17.0656 41 18z"/>
<path style="fill:#ffffff; stroke:none;" d="M57 28C60.1224 24.2173 61.5732 19.8578 62 15C56.854 17.77 57.0147 22.6679 57 28z"/>
<path style="fill:#000000; stroke:none;" d="M74 28C72.3605 25.089 71.2328 22.0973 70 19L68 19C66.8623 22.969 68.6397 35.6508 75.6073 31.9136C78.8038 30.1991 79.5222 25.1878 80 22C81.132 24.1343 83.0732 27.0145 82.3634 29.5756C81.6759 32.0565 79.0387 34.076 77.463 36.0039C72.6331 41.9132 65.0002 52.9591 69.179 60.9807C74.127 70.479 86.589 65.3045 90.5826 57.9992C95.1544 49.6362 92.1857 39.3225 89 31C92.5316 30.0343 95.7696 28.7204 99 27L99 25C94.4204 23.7444 91.2024 25.0389 87 27C86.4439 23.8823 82.7087 12.4101 77.7269 16.662C75.055 18.9424 74.6703 24.7522 74 28z"/>
<path style="fill:#ffffff; stroke:none;" d="M37 19C34.0768 27.0206 33.6157 33.0771 41 38C44.3156 35.1041 48.1101 28.7136 44.3966 24.5594C42.3935 22.3186 39.1794 21.2457 37 19M84 35C80.221 40.5321 75.3862 45.4106 73.4468 52C72.6917 54.5653 71.8415 58.1661 73.8727 60.3958C77.631 64.5215 84.6353 59.345 86.7215 55.9066C90.631 49.4629 87.5274 41.682 86 35L84 35M24 41C11.7729 43.9313 4.71081 53.6295 5.01466 66C5.13209 70.7808 6.34967 77.3889 11.1049 79.8017C14.7584 81.6554 18.0605 79.0681 19.9113 75.9807C22.9054 70.986 23.5196 63.7029 23.9105 58C24.2963 52.3719 24 46.6402 24 41M0 69L0 85L10 85C5.26725 79.8151 3.02788 75.1385 0 69z"/>
</svg>
